<svg width="138" height="41" viewBox="0 0 138 41" fill="none" xmlns="http://www.w3.org/2000/svg">
<rect width="138" height="41" fill="#FCED20"/>
<path d="M18.5312 24.0703H13.3672L12.0234 27H10.0625L16.0312 14.1797L21.7891 27H19.7969L18.5312 24.0703ZM17.7891 22.3594L16 18.2578L14.125 22.3594H17.7891ZM28.3225 13.8047H30.0881V27H28.3225V26.2031C27.6298 26.8802 26.8459 27.2188 25.9709 27.2188C24.9293 27.2188 24.0647 26.8385 23.3772 26.0781C22.6949 25.3021 22.3538 24.3333 22.3538 23.1719C22.3538 22.0365 22.6949 21.0885 23.3772 20.3281C24.0543 19.5625 24.9058 19.1797 25.9319 19.1797C26.8225 19.1797 27.6194 19.5443 28.3225 20.2734V13.8047ZM24.1506 23.1719C24.1506 23.901 24.3459 24.4948 24.7366 24.9531C25.1376 25.4167 25.6428 25.6484 26.2522 25.6484C26.9032 25.6484 27.4293 25.4245 27.8303 24.9766C28.2314 24.513 28.4319 23.9245 28.4319 23.2109C28.4319 22.4974 28.2314 21.9089 27.8303 21.4453C27.4293 20.9922 26.9084 20.7656 26.2678 20.7656C25.6636 20.7656 25.1584 20.9948 24.7522 21.4531C24.3511 21.9167 24.1506 22.4896 24.1506 23.1719ZM37.6763 13.8047H39.4419V27H37.6763V26.2031C36.9835 26.8802 36.1997 27.2188 35.3247 27.2188C34.283 27.2188 33.4184 26.8385 32.7309 26.0781C32.0486 25.3021 31.7075 24.3333 31.7075 23.1719C31.7075 22.0365 32.0486 21.0885 32.7309 20.3281C33.408 19.5625 34.2596 19.1797 35.2856 19.1797C36.1763 19.1797 36.9731 19.5443 37.6763 20.2734V13.8047ZM33.5044 23.1719C33.5044 23.901 33.6997 24.4948 34.0903 24.9531C34.4914 25.4167 34.9966 25.6484 35.6059 25.6484C36.257 25.6484 36.783 25.4245 37.1841 24.9766C37.5851 24.513 37.7856 23.9245 37.7856 23.2109C37.7856 22.4974 37.5851 21.9089 37.1841 21.4453C36.783 20.9922 36.2622 20.7656 35.6216 20.7656C35.0174 20.7656 34.5122 20.9948 34.1059 21.4531C33.7049 21.9167 33.5044 22.4896 33.5044 23.1719ZM47.9306 21.0312V27H46.1728V21.0312H45.4228V19.3906H46.1728V16.6016H47.9306V19.3906H49.2978V21.0312H47.9306ZM50.0031 23.1406C50.0031 22.0417 50.3964 21.1068 51.1828 20.3359C51.9693 19.5651 52.9276 19.1797 54.0578 19.1797C55.1932 19.1797 56.1568 19.5677 56.9484 20.3438C57.7297 21.1198 58.1203 22.0729 58.1203 23.2031C58.1203 24.3438 57.7271 25.2995 56.9406 26.0703C56.149 26.8359 55.1776 27.2188 54.0266 27.2188C52.8859 27.2188 51.9302 26.8281 51.1594 26.0469C50.3885 25.276 50.0031 24.3073 50.0031 23.1406ZM51.8 23.1719C51.8 23.9323 52.0031 24.5339 52.4094 24.9766C52.826 25.4245 53.3755 25.6484 54.0578 25.6484C54.7453 25.6484 55.2948 25.4271 55.7062 24.9844C56.1177 24.5417 56.3234 23.9505 56.3234 23.2109C56.3234 22.4714 56.1177 21.8802 55.7062 21.4375C55.2896 20.9896 54.7401 20.7656 54.0578 20.7656C53.3859 20.7656 52.8417 20.9896 52.425 21.4375C52.0083 21.8854 51.8 22.4635 51.8 23.1719ZM70.3669 19.7188V22.0547C69.9658 21.5651 69.6065 21.2292 69.2887 21.0469C68.9762 20.8594 68.6091 20.7656 68.1872 20.7656C67.5257 20.7656 66.9762 20.9974 66.5387 21.4609C66.1012 21.9245 65.8825 22.5052 65.8825 23.2031C65.8825 23.9167 66.0934 24.5026 66.5153 24.9609C66.9424 25.4193 67.4867 25.6484 68.1481 25.6484C68.57 25.6484 68.9424 25.5573 69.2653 25.375C69.5778 25.1979 69.945 24.8542 70.3669 24.3438V26.6641C69.6533 27.0339 68.9398 27.2188 68.2262 27.2188C67.0492 27.2188 66.0648 26.8385 65.2731 26.0781C64.4815 25.3125 64.0856 24.362 64.0856 23.2266C64.0856 22.0911 64.4867 21.1328 65.2887 20.3516C66.0908 19.5703 67.0752 19.1797 68.2419 19.1797C68.9919 19.1797 69.7002 19.3594 70.3669 19.7188ZM77.4394 19.3906H79.205V27H77.4394V26.2031C76.7154 26.8802 75.9368 27.2188 75.1034 27.2188C74.0514 27.2188 73.1816 26.8385 72.4941 26.0781C71.8118 25.3021 71.4706 24.3333 71.4706 23.1719C71.4706 22.0312 71.8118 21.0807 72.4941 20.3203C73.1764 19.5599 74.0305 19.1797 75.0566 19.1797C75.942 19.1797 76.7363 19.5443 77.4394 20.2734V19.3906ZM73.2675 23.1719C73.2675 23.901 73.4628 24.4948 73.8534 24.9531C74.2545 25.4167 74.7597 25.6484 75.3691 25.6484C76.0201 25.6484 76.5461 25.4245 76.9472 24.9766C77.3482 24.513 77.5488 23.9245 77.5488 23.2109C77.5488 22.4974 77.3482 21.9089 76.9472 21.4453C76.5461 20.9922 76.0253 20.7656 75.3847 20.7656C74.7805 20.7656 74.2753 20.9948 73.8691 21.4531C73.468 21.9167 73.2675 22.4896 73.2675 23.1719ZM81.1837 19.3906H82.9416V20.0703C83.2645 19.7318 83.5509 19.5 83.8009 19.375C84.0561 19.2448 84.3582 19.1797 84.7072 19.1797C85.1707 19.1797 85.6551 19.3307 86.1603 19.6328L85.3556 21.2422C85.0223 21.0026 84.6968 20.8828 84.3791 20.8828C83.4207 20.8828 82.9416 21.6068 82.9416 23.0547V27H81.1837V19.3906ZM92.4281 13.8047H94.1937V27H92.4281V26.2031C91.7354 26.8802 90.9516 27.2188 90.0766 27.2188C89.0349 27.2188 88.1703 26.8385 87.4828 26.0781C86.8005 25.3021 86.4594 24.3333 86.4594 23.1719C86.4594 22.0365 86.8005 21.0885 87.4828 20.3281C88.1599 19.5625 89.0115 19.1797 90.0375 19.1797C90.9281 19.1797 91.725 19.5443 92.4281 20.2734V13.8047ZM88.2562 23.1719C88.2562 23.901 88.4516 24.4948 88.8422 24.9531C89.2432 25.4167 89.7484 25.6484 90.3578 25.6484C91.0089 25.6484 91.5349 25.4245 91.9359 24.9766C92.337 24.513 92.5375 23.9245 92.5375 23.2109C92.5375 22.4974 92.337 21.9089 91.9359 21.4453C91.5349 20.9922 91.0141 20.7656 90.3734 20.7656C89.7693 20.7656 89.2641 20.9948 88.8578 21.4531C88.4568 21.9167 88.2562 22.4896 88.2562 23.1719Z" fill="black"/>
<path d="M122.21 18.1196L117.83 11.8983C117.64 11.6328 117.32 11.5 117 11.5C116.68 11.5 116.36 11.6328 116.17 11.9078L111.79 18.1196H107C106.45 18.1196 106 18.5464 106 19.068C106 19.1533 106.01 19.2387 106.04 19.324L108.58 28.1154C108.81 28.912 109.58 29.5 110.5 29.5H123.5C124.42 29.5 125.19 28.912 125.43 28.1154L127.97 19.324L128 19.068C128 18.5464 127.55 18.1196 127 18.1196H122.21ZM114 18.1196L117 13.9468L120 18.1196H114ZM117 25.7065C115.9 25.7065 115 24.853 115 23.8098C115 22.7666 115.9 21.9131 117 21.9131C118.1 21.9131 119 22.7666 119 23.8098C119 24.853 118.1 25.7065 117 25.7065Z" fill="black"/>
</svg>
