<svg width="26" height="26" viewBox="0 0 26 26" fill="none" xmlns="http://www.w3.org/2000/svg">
<path d="M13 26C10.4288 26 7.91543 25.2376 5.77759 23.8091C3.63975 22.3806 1.97351 20.3503 0.989572 17.9749C0.00563267 15.5994 -0.251811 12.9856 0.249797 10.4638C0.751405 7.94208 1.98953 5.6257 3.80762 3.80762C5.6257 1.98953 7.94208 0.751405 10.4638 0.249797C12.9856 -0.251811 15.5994 0.00563267 17.9749 0.989572C20.3503 1.97351 22.3806 3.63975 23.8091 5.77759C25.2376 7.91543 26 10.4288 26 13C26 16.4478 24.6304 19.7544 22.1924 22.1924C19.7544 24.6304 16.4478 26 13 26ZM13 0.634152C10.5543 0.634152 8.16346 1.3594 6.1299 2.71817C4.09635 4.07695 2.51139 6.00823 1.57545 8.2678C0.639504 10.5274 0.394619 13.0137 0.871758 15.4125C1.3489 17.8112 2.52663 20.0146 4.25603 21.744C5.98542 23.4734 8.1888 24.6511 10.5875 25.1282C12.9863 25.6054 15.4726 25.3605 17.7322 24.4246C19.9918 23.4886 21.9231 21.9037 23.2818 19.8701C24.6406 17.8365 25.3659 15.4457 25.3659 13C25.3659 9.72038 24.063 6.57507 21.744 4.25603C19.4249 1.93698 16.2796 0.634152 13 0.634152Z" fill="black"/>
<path d="M10.248 11.0654H11.4149V9.92078C11.4149 9.41347 11.4149 8.63347 11.7954 8.15152C12.0042 7.86446 12.2825 7.63507 12.6041 7.4848C12.9257 7.33452 13.2802 7.26828 13.6344 7.29225C14.3459 7.2611 15.0582 7.33265 15.7493 7.50469L15.4544 9.25176C15.1443 9.16588 14.8248 9.11797 14.5032 9.10908C14.0434 9.10908 13.6344 9.27395 13.6344 9.74322V11.0654H15.5178L15.3878 12.7744H13.6344V18.7069H11.4149V12.7744H10.248V11.0654Z" fill="black"/>
</svg>
