<svg width="26" height="26" viewBox="0 0 26 26" fill="none" xmlns="http://www.w3.org/2000/svg">
<path d="M13 26C10.4288 26 7.91543 25.2376 5.77759 23.8091C3.63975 22.3806 1.97351 20.3503 0.989572 17.9749C0.00563267 15.5994 -0.251811 12.9856 0.249797 10.4638C0.751405 7.94208 1.98953 5.6257 3.80762 3.80762C5.6257 1.98953 7.94208 0.751405 10.4638 0.249797C12.9856 -0.251811 15.5994 0.00563267 17.9749 0.989572C20.3503 1.97351 22.3806 3.63975 23.8091 5.77759C25.2376 7.91543 26 10.4288 26 13C26 16.4478 24.6304 19.7544 22.1924 22.1924C19.7544 24.6304 16.4478 26 13 26ZM13 0.634152C10.5543 0.634152 8.16346 1.3594 6.1299 2.71817C4.09635 4.07695 2.51139 6.00823 1.57545 8.2678C0.639504 10.5274 0.394619 13.0137 0.871758 15.4125C1.3489 17.8112 2.52663 20.0146 4.25603 21.744C5.98542 23.4734 8.1888 24.6511 10.5875 25.1282C12.9863 25.6054 15.4726 25.3605 17.7322 24.4246C19.9918 23.4886 21.9231 21.9037 23.2818 19.8701C24.6406 17.8365 25.3659 15.4457 25.3659 13C25.3659 9.72038 24.063 6.57507 21.744 4.25603C19.4249 1.93698 16.2796 0.634152 13 0.634152Z" fill="black"/>
<path d="M16.6667 7H9.33333C8.71449 7 8.121 7.24583 7.68342 7.68342C7.24583 8.121 7 8.71449 7 9.33333V16.6667C7 16.9731 7.06035 17.2765 7.17761 17.5596C7.29488 17.8427 7.46675 18.0999 7.68342 18.3166C7.90009 18.5333 8.15731 18.7051 8.44041 18.8224C8.7235 18.9396 9.02692 19 9.33333 19H16.6667C16.9731 19 17.2765 18.9396 17.5596 18.8224C17.8427 18.7051 18.0999 18.5333 18.3166 18.3166C18.5333 18.0999 18.7051 17.8427 18.8224 17.5596C18.9396 17.2765 19 16.9731 19 16.6667V9.33333C19 9.02692 18.9396 8.7235 18.8224 8.44041C18.7051 8.15731 18.5333 7.90009 18.3166 7.68342C18.0999 7.46675 17.8427 7.29488 17.5596 7.17761C17.2765 7.06035 16.9731 7 16.6667 7ZM17.3333 8.38333H17.5967V10.4167H15.57V8.38333H17.3333ZM11.29 11.77C11.5843 11.3633 12.0141 11.0751 12.5021 10.9573C12.9901 10.8394 13.5041 10.8997 13.9515 11.1272C14.399 11.3548 14.7505 11.7346 14.9427 12.1983C15.135 12.662 15.1553 13.1792 15.0001 13.6566C14.8448 14.1339 14.5242 14.5402 14.096 14.8022C13.6677 15.0641 13.1601 15.1645 12.6643 15.0853C12.1686 15.0062 11.7175 14.7526 11.3922 14.3702C11.0669 13.9879 10.8888 13.502 10.89 13C10.8913 12.5582 11.0312 12.128 11.29 11.77ZM17.8333 16.6667C17.8347 16.8199 17.8054 16.9719 17.7471 17.1137C17.6889 17.2555 17.6029 17.3842 17.4942 17.4923C17.3855 17.6004 17.2563 17.6856 17.1142 17.743C16.9721 17.8005 16.8199 17.8289 16.6667 17.8267H9.33333C9.18035 17.8284 9.02855 17.7997 8.88682 17.7421C8.74509 17.6844 8.61629 17.5991 8.50795 17.4911C8.39961 17.3831 8.31392 17.2545 8.25589 17.1129C8.19786 16.9714 8.16866 16.8197 8.17 16.6667V11.77H9.96C9.75828 12.2679 9.68195 12.8078 9.73773 13.3421C9.7935 13.8765 9.97968 14.3889 10.2799 14.8345C10.5801 15.28 10.9852 15.645 11.4594 15.8973C11.9337 16.1496 12.4628 16.2816 13 16.2816C13.5372 16.2816 14.0663 16.1496 14.5406 15.8973C15.0148 15.645 15.4199 15.28 15.7201 14.8345C16.0203 14.3889 16.2065 13.8765 16.2623 13.3421C16.3181 12.8078 16.2417 12.2679 16.04 11.77H17.8333V16.6667Z" fill="black"/>
</svg>
