<svg width="311" height="62" viewBox="0 0 311 62" fill="none" xmlns="http://www.w3.org/2000/svg">
<rect width="311" height="62" fill="#FCED20"/>
<path d="M23.4478 16.2231C17.079 16.3037 12 21.4633 12 27.8321V35.1684C12 41.5373 17.1596 46.7775 23.6091 46.7775H32.8802V36.1358H22.4804V26.7035H23.4478H32.8802V16.3037V8H23.4478V16.2231Z" fill="black"/>
<path d="M50.6316 46.3415C57.0004 46.2609 62.0794 41.1013 62.0794 34.7324V27.3962C62.0794 21.0273 56.9198 15.7871 50.4703 15.7871H41.1992V26.4287H51.599V35.8611H50.6316H41.1992V46.2609V54.5646H50.6316V46.3415Z" fill="#DF2228"/>
<path d="M78.1875 23.4785H83.9114C85.2013 23.4785 86.4106 23.6398 87.5392 23.8816C88.6679 24.2041 89.6353 24.6072 90.4415 25.2521C91.2477 25.8971 91.8926 26.7032 92.3764 27.7513C92.8601 28.7187 93.1019 29.928 93.1019 31.3791C93.1019 32.5078 92.9407 33.5558 92.5376 34.5232C92.1345 35.41 91.6508 36.2162 90.9252 36.8612C90.1997 37.5061 89.3935 37.9898 88.426 38.3929C87.4586 38.7154 86.4106 38.9572 85.2819 38.9572H78.1875V23.4785ZM83.8308 34.362H84.1533C84.637 34.362 85.0401 34.2814 85.4432 34.2008C85.8463 34.1201 86.1687 33.8783 86.4912 33.717C86.8137 33.4752 87.0555 33.1527 87.2168 32.8302C87.378 32.5078 87.4586 32.0241 87.4586 31.5404C87.4586 30.4117 87.1362 29.6861 86.5718 29.2024C86.0075 28.7187 85.2013 28.4768 84.1533 28.4768H83.8308V34.362Z" fill="black"/>
<path d="M99.7924 34.2C99.7924 34.4419 99.7924 34.6031 99.873 34.845C99.873 35.0868 99.9536 35.2481 100.034 35.4093C100.115 35.5705 100.276 35.7318 100.437 35.8124C100.599 35.893 100.84 35.9736 101.082 35.9736C101.324 35.9736 101.566 35.893 101.808 35.7318C101.969 35.5705 102.13 35.3287 102.211 35.0868H107.371C107.209 35.7318 106.887 36.2961 106.484 36.7798C106.081 37.2635 105.597 37.6666 105.033 37.9891C104.468 38.3116 103.823 38.5534 103.178 38.7147C102.533 38.8759 101.888 38.9565 101.244 38.9565C100.357 38.9565 99.5505 38.8759 98.7443 38.634C97.9382 38.3922 97.2932 38.0697 96.6483 37.586C96.0033 37.1023 95.5196 36.538 95.1971 35.893C94.794 35.1674 94.6328 34.3613 94.6328 33.4745C94.6328 32.5877 94.794 31.7815 95.1165 31.0559C95.439 30.3303 95.9227 29.6854 96.487 29.2017C97.0514 28.718 97.6963 28.3149 98.5025 28.073C99.2281 27.8312 100.115 27.6699 100.921 27.6699C101.888 27.6699 102.775 27.8312 103.662 28.1536C104.468 28.4761 105.194 28.8792 105.839 29.4435C106.484 30.0079 106.887 30.7334 107.209 31.5396C107.532 32.3458 107.693 33.2326 107.612 34.2806H99.7924V34.2ZM102.211 31.9427C102.211 31.5396 102.13 31.2171 101.888 30.9753C101.647 30.6528 101.324 30.5722 100.921 30.5722C100.518 30.5722 100.195 30.7334 100.034 30.9753C99.873 31.2171 99.7118 31.6202 99.7118 31.9427H102.211Z" fill="black"/>
<path d="M114.385 27.832V33.3947C114.385 33.5559 114.385 33.7172 114.385 33.8784C114.385 34.0397 114.465 34.2009 114.465 34.2815C114.546 34.4427 114.627 34.5234 114.707 34.604C114.788 34.6846 115.03 34.6846 115.191 34.6846C115.433 34.6846 115.594 34.6846 115.675 34.604C115.755 34.5234 115.916 34.4427 115.916 34.2815C115.997 34.1203 115.997 34.0397 115.997 33.8784C115.997 33.7172 115.997 33.5559 115.997 33.3947V27.832H121.237V33.959C121.237 34.8458 121.076 35.5714 120.754 36.2163C120.431 36.8613 119.947 37.345 119.383 37.7481C118.819 38.1512 118.174 38.4737 117.448 38.6349C116.723 38.7961 115.916 38.9574 115.191 38.9574C114.385 38.9574 113.659 38.8768 112.934 38.6349C112.208 38.4737 111.563 38.1512 110.999 37.7481C110.434 37.345 109.951 36.8613 109.628 36.2163C109.306 35.5714 109.145 34.8458 109.145 33.959V27.832H114.385Z" fill="black"/>
<path d="M131.234 28.1546V32.2662L129.46 32.1856V38.9575H124.623V32.1856L122.85 32.2662V28.1546L124.623 28.2353V24.6074H129.46V28.2353L131.234 28.1546Z" fill="black"/>
<path d="M132.846 34.4429L133.168 34.6848C133.572 34.9267 133.975 35.1685 134.458 35.3297C134.942 35.5716 135.426 35.6522 135.909 35.6522C136.071 35.6522 136.232 35.5716 136.393 35.491C136.554 35.4104 136.635 35.2491 136.635 35.0073C136.635 34.846 136.635 34.7654 136.554 34.6848C136.474 34.6042 136.393 34.5236 136.313 34.5236C136.232 34.4429 136.071 34.4429 135.99 34.4429C135.829 34.4429 135.748 34.443 135.668 34.3623C135.265 34.2817 134.781 34.2011 134.378 34.1205C133.975 33.9592 133.572 33.798 133.33 33.5562C133.007 33.3143 132.765 32.9918 132.604 32.6693C132.443 32.3469 132.282 31.8632 132.282 31.3794C132.282 30.7345 132.443 30.0895 132.765 29.6058C133.088 29.1221 133.491 28.719 133.975 28.3965C134.458 28.0741 135.023 27.8322 135.587 27.7516C136.151 27.5904 136.796 27.5098 137.361 27.5098C138.006 27.5098 138.731 27.5904 139.537 27.7516C140.344 27.9128 140.988 28.1547 141.553 28.4772L140.263 31.4601C139.94 31.2182 139.537 30.9763 139.134 30.8151C138.731 30.6539 138.247 30.5733 137.844 30.5733C137.683 30.5733 137.522 30.5733 137.361 30.6539C137.199 30.7345 137.119 30.8151 137.119 31.057C137.119 31.2988 137.28 31.4601 137.522 31.5407C137.764 31.6213 138.086 31.7019 138.489 31.7019C138.973 31.7825 139.376 31.8631 139.779 32.0244C140.182 32.1856 140.585 32.3469 140.908 32.5887C141.23 32.8306 141.472 33.1531 141.633 33.4755C141.795 33.8786 141.875 34.2817 141.875 34.846C141.875 35.5716 141.714 36.1359 141.392 36.7003C141.069 37.184 140.666 37.5871 140.182 37.9095C139.699 38.232 139.134 38.4739 138.489 38.6351C137.844 38.7963 137.199 38.8769 136.635 38.8769C135.748 38.8769 134.942 38.7963 134.055 38.5545C133.249 38.3126 132.443 38.0708 131.637 37.6677L132.846 34.4429Z" fill="black"/>
<path d="M151.792 32.5076C151.551 32.2657 151.228 32.1045 150.906 31.8626C150.583 31.7014 150.261 31.6208 149.858 31.6208C149.374 31.6208 148.971 31.782 148.648 32.0239C148.326 32.3463 148.165 32.7494 148.165 33.2331C148.165 33.6362 148.326 34.0393 148.648 34.3618C148.971 34.6843 149.293 34.8455 149.777 34.8455C150.18 34.8455 150.583 34.7649 150.906 34.6037C151.228 34.4424 151.551 34.2006 151.873 34.0393L151.631 38.4733C151.228 38.6346 150.825 38.7152 150.341 38.7958C149.858 38.8764 149.454 38.9571 148.971 38.9571C148.084 38.9571 147.278 38.7958 146.552 38.554C145.827 38.3121 145.182 37.909 144.617 37.5059C144.053 37.0222 143.65 36.4579 143.327 35.7323C143.005 35.0067 142.844 34.2006 142.844 33.3138C142.844 32.5076 143.005 31.782 143.247 31.0565C143.489 30.3309 143.892 29.7665 144.375 29.2022C144.859 28.7185 145.424 28.3154 146.149 27.9929C146.794 27.6705 147.6 27.5898 148.406 27.5898C148.971 27.5898 149.535 27.6705 150.099 27.7511C150.664 27.8317 151.228 27.9929 151.712 28.1542V32.5076H151.792Z" fill="black"/>
<path d="M172.994 34.2C172.994 34.4419 172.994 34.6031 172.994 34.845C172.994 35.0868 173.075 35.2481 173.155 35.4093C173.236 35.5705 173.397 35.7318 173.558 35.8124C173.72 35.893 173.962 35.9736 174.203 35.9736C174.445 35.9736 174.687 35.893 174.929 35.7318C175.09 35.5705 175.251 35.3287 175.332 35.0868H180.492C180.33 35.7318 180.008 36.2961 179.605 36.7798C179.202 37.2635 178.718 37.6666 178.154 37.9891C177.589 38.3116 176.944 38.5534 176.299 38.7147C175.655 38.8759 175.01 38.9565 174.365 38.9565C173.478 38.9565 172.672 38.8759 171.865 38.634C171.059 38.3922 170.414 38.0697 169.769 37.586C169.124 37.1023 168.641 36.538 168.318 35.893C167.915 35.1674 167.754 34.3613 167.754 33.4745C167.754 32.5877 167.915 31.7815 168.238 31.0559C168.56 30.3303 169.044 29.6854 169.608 29.2017C170.172 28.718 170.817 28.3149 171.624 28.073C172.349 27.8312 173.236 27.6699 174.042 27.6699C175.01 27.6699 175.896 27.8312 176.783 28.1536C177.589 28.4761 178.315 28.8792 178.96 29.4435C179.605 30.0079 180.008 30.7334 180.33 31.5396C180.653 32.3458 180.814 33.2326 180.733 34.2806H172.994V34.2ZM175.493 31.9427C175.493 31.5396 175.413 31.2171 175.171 30.9753C174.929 30.6528 174.606 30.5722 174.203 30.5722C173.8 30.5722 173.478 30.7334 173.317 30.9753C173.155 31.2171 172.994 31.6202 172.994 31.9427H175.493Z" fill="black"/>
<path d="M191.215 23.4785H198.309C199.196 23.4785 200.083 23.5591 200.808 23.801C201.534 24.0428 202.26 24.3653 202.824 24.849C203.388 25.3327 203.791 25.8971 204.114 26.6226C204.436 27.3482 204.598 28.1544 204.598 29.1218C204.598 29.928 204.517 30.6535 204.275 31.2179C204.033 31.8628 203.711 32.3465 203.227 32.8302C202.824 33.3139 202.26 33.6364 201.615 33.8783C200.97 34.1201 200.244 34.2008 199.519 34.2008H196.616V38.8766H191.215V23.4785ZM196.616 30.4117H197.181C197.422 30.4117 197.664 30.4117 197.906 30.3311C198.148 30.3311 198.39 30.2505 198.551 30.1698C198.712 30.0892 198.874 29.928 199.035 29.7667C199.196 29.6055 199.196 29.3637 199.196 29.0412C199.196 28.7187 199.115 28.4769 199.035 28.3156C198.874 28.1544 198.712 27.9931 198.551 27.9125C198.39 27.8319 198.148 27.7513 197.906 27.7513C197.664 27.7513 197.422 27.7513 197.181 27.7513H196.616V30.4117Z" fill="black"/>
<path d="M205.887 22.9141H211.208V29.9279C211.288 29.8473 211.369 29.686 211.449 29.6054C211.772 29.2023 212.094 28.7992 212.497 28.4767L212.578 28.3961C212.82 28.2349 213.142 28.0737 213.465 27.9124C213.787 27.8318 214.11 27.7512 214.513 27.7512C215.158 27.7512 215.722 27.8318 216.206 28.0736C216.69 28.3155 217.093 28.638 217.335 29.0411C217.657 29.4442 217.818 29.9279 217.979 30.4922C218.141 31.0565 218.141 31.6209 218.141 32.1852V38.8765H212.981V33.2332C212.981 33.072 212.981 32.9914 212.981 32.8301C212.981 32.6689 212.901 32.5076 212.901 32.427C212.82 32.3464 212.739 32.1852 212.659 32.1046C212.578 32.0239 212.417 32.0239 212.175 32.0239C211.772 32.0239 211.53 32.1852 211.369 32.427C211.208 32.6689 211.208 32.9914 211.208 33.3138V38.9571H205.887V22.9141Z" fill="black"/>
<path d="M153.807 22.9141H159.127V29.9279C159.208 29.8473 159.289 29.686 159.369 29.6054C159.692 29.2023 160.014 28.7992 160.417 28.4767L160.498 28.3961C160.74 28.2349 161.062 28.0737 161.385 27.9124C161.707 27.8318 162.03 27.7512 162.433 27.7512C163.078 27.7512 163.642 27.8318 164.126 28.0736C164.61 28.3155 165.013 28.638 165.254 29.0411C165.577 29.4442 165.738 29.9279 165.899 30.4922C166.061 31.0565 166.061 31.6209 166.061 32.1852V38.8765H160.901V33.2332C160.901 33.072 160.901 32.9914 160.901 32.8301C160.901 32.6689 160.82 32.5076 160.82 32.427C160.74 32.3464 160.659 32.1852 160.579 32.1046C160.498 32.0239 160.337 32.0239 160.095 32.0239C159.692 32.0239 159.45 32.1852 159.289 32.427C159.127 32.6689 159.127 32.9914 159.127 33.3138V38.9571H153.807V22.9141Z" fill="black"/>
<path d="M227.655 37.2649C227.655 37.2649 227.171 37.7487 227.01 37.9905C226.768 38.2324 226.526 38.3936 226.284 38.5548C226.042 38.7161 225.72 38.7967 225.397 38.8773C225.075 38.9579 224.752 39.0385 224.349 39.0385C223.624 39.0385 222.979 38.8773 222.414 38.5548C221.85 38.2323 221.366 37.7486 220.963 37.2649C220.56 36.7006 220.318 36.1363 220.076 35.4913C219.915 34.8464 219.754 34.1208 219.754 33.4759C219.754 32.8309 219.835 32.1054 220.076 31.4604C220.318 30.8155 220.56 30.1705 220.963 29.6062C221.366 29.0418 221.85 28.6388 222.414 28.2357C222.979 27.9132 223.704 27.752 224.43 27.752C225.075 27.752 225.639 27.9132 226.203 28.155C226.768 28.3969 227.171 28.8 227.574 29.2837V27.9938H232.733V38.8773H227.574V37.2649H227.655ZM225.075 33.234C225.075 33.6371 225.155 34.0402 225.397 34.3627C225.639 34.6852 225.962 34.8464 226.445 34.8464C226.929 34.8464 227.332 34.6852 227.493 34.3627C227.735 34.0402 227.816 33.6371 227.816 33.234C227.816 32.8309 227.655 32.4278 227.413 32.186C227.171 31.9441 226.848 31.7829 226.365 31.7829C225.962 31.7829 225.639 31.9441 225.397 32.2666C225.155 32.5084 225.075 32.8309 225.075 33.234Z" fill="black"/>
<path d="M273.283 37.2649C273.283 37.2649 272.8 37.7487 272.638 37.9905C272.397 38.2324 272.155 38.3936 271.913 38.5548C271.671 38.7161 271.349 38.7967 271.026 38.8773C270.704 38.9579 270.381 39.0385 269.978 39.0385C269.253 39.0385 268.608 38.8773 268.043 38.5548C267.479 38.2323 266.995 37.7486 266.592 37.2649C266.189 36.7006 265.947 36.1363 265.705 35.4913C265.544 34.8464 265.383 34.1208 265.383 33.4759C265.383 32.8309 265.463 32.1054 265.705 31.4604C265.947 30.8155 266.189 30.1705 266.592 29.6062C266.995 29.0418 267.479 28.6388 268.043 28.2357C268.608 27.9132 269.333 27.752 270.059 27.752C270.704 27.752 271.268 27.9132 271.832 28.155C272.397 28.3969 272.8 28.8 273.203 29.2837V27.9938H278.362V38.8773H273.203V37.2649H273.283ZM270.623 33.234C270.623 33.6371 270.704 34.0402 270.945 34.3627C271.187 34.6852 271.51 34.8464 271.994 34.8464C272.477 34.8464 272.88 34.6852 273.122 34.3627C273.364 34.0402 273.445 33.6371 273.445 33.234C273.445 32.8309 273.283 32.4278 273.042 32.186C272.8 31.9441 272.477 31.7829 271.994 31.7829C271.59 31.7829 271.268 31.9441 271.026 32.2666C270.784 32.5084 270.623 32.8309 270.623 33.234Z" fill="black"/>
<path d="M243.859 33.2335C243.617 33.0722 243.294 32.911 243.133 32.8304C242.891 32.7497 242.65 32.6691 242.246 32.6691C241.521 32.6691 241.037 32.8304 240.715 33.2335C240.392 33.6365 240.231 34.1203 240.231 34.8458V39.038H234.91V28.1545H240.231V29.6056C240.473 29.2831 240.715 28.9607 240.957 28.7188C241.198 28.477 241.44 28.3157 241.763 28.1545C242.085 27.9933 242.408 27.9127 242.73 27.9127C243.053 27.832 243.456 27.832 243.939 27.832V33.2335H243.859Z" fill="black"/>
<path d="M250.309 30.0082C250.389 29.8469 250.389 29.7663 250.47 29.6051C250.631 29.2826 250.792 28.9601 251.115 28.7183C251.195 28.6377 251.357 28.557 251.437 28.4764C251.679 28.3152 252.002 28.154 252.324 28.0733C252.646 27.9927 252.969 27.9121 253.372 27.9121C254.178 27.9121 254.984 28.0733 255.549 28.4764C256.436 29.202 256.597 30.1694 256.597 30.1694C256.919 29.4439 257.322 28.7989 257.887 28.4764C258.37 28.0733 259.096 27.9121 259.902 27.9121C260.547 27.9121 261.111 27.9927 261.595 28.2346C262.079 28.4764 262.482 28.7989 262.724 29.202C263.046 29.6051 263.288 30.0888 263.369 30.5725C263.53 31.1368 263.611 31.6206 263.611 32.2655V39.0374H258.451V33.636C258.451 33.4748 258.451 33.3135 258.451 33.1523C258.451 32.9911 258.451 32.8298 258.37 32.6686C258.29 32.5074 258.209 32.4267 258.129 32.3461C258.048 32.2655 257.887 32.1849 257.645 32.1849C257.484 32.1849 257.322 32.2655 257.242 32.3461C257.161 32.4267 257.08 32.5074 257 32.6686C256.919 32.8298 256.919 32.9911 256.919 33.1523C256.919 33.3135 256.919 33.4748 256.919 33.636V39.0374H251.76V33.636C251.76 33.4748 251.76 33.3135 251.76 33.1523C251.76 32.9911 251.76 32.8298 251.679 32.6686C251.598 32.5074 251.518 32.4267 251.437 32.3461C251.357 32.2655 251.195 32.1849 250.953 32.1849C250.792 32.1849 250.631 32.2655 250.55 32.3461C250.47 32.4267 250.389 32.5074 250.309 32.6686C250.228 32.8298 250.228 32.9911 250.228 33.1523C250.228 33.3135 250.228 33.4748 250.228 33.636V39.0374H245.068V28.154H250.228V30.0082H250.309Z" fill="black"/>
<path d="M289.085 32.5076C288.843 32.2657 288.521 32.1045 288.199 31.8626C287.876 31.7014 287.554 31.6208 287.151 31.6208C286.667 31.6208 286.264 31.782 285.941 32.0239C285.619 32.3463 285.458 32.7494 285.458 33.2331C285.458 33.6362 285.619 34.0393 285.941 34.3618C286.264 34.6843 286.586 34.8455 287.07 34.8455C287.473 34.8455 287.876 34.7649 288.199 34.6037C288.521 34.4424 288.843 34.2006 289.166 34.0393L288.924 38.4733C288.521 38.6346 288.118 38.7152 287.634 38.7958C287.151 38.8764 286.747 38.9571 286.264 38.9571C285.377 38.9571 284.571 38.7958 283.845 38.554C283.12 38.3121 282.475 37.909 281.91 37.5059C281.346 37.0222 280.943 36.4579 280.62 35.7323C280.298 35.0067 280.137 34.2006 280.137 33.3138C280.137 32.5076 280.298 31.782 280.54 31.0565C280.862 30.3309 281.185 29.7665 281.749 29.2022C282.233 28.7185 282.878 28.3154 283.523 27.9929C284.248 27.6705 284.974 27.5898 285.78 27.5898C286.344 27.5898 286.909 27.6705 287.473 27.7511C288.037 27.8317 288.602 27.9929 289.085 28.1542V32.5076Z" fill="black"/>
<path d="M295.292 27.5898L296.502 31.8626L296.985 33.475L298.436 27.5898H303.999L296.824 43.6329H291.181L294.244 37.3447L289.568 27.5898H295.292Z" fill="black"/>
</svg>
