<svg width="26" height="26" viewBox="0 0 26 26" fill="none" xmlns="http://www.w3.org/2000/svg">
<path d="M13 26C10.4288 26 7.91543 25.2376 5.77759 23.8091C3.63975 22.3806 1.97351 20.3503 0.989572 17.9749C0.00563267 15.5994 -0.251811 12.9856 0.249797 10.4638C0.751405 7.94208 1.98953 5.6257 3.80762 3.80762C5.6257 1.98953 7.94208 0.751405 10.4638 0.249797C12.9856 -0.251811 15.5994 0.00563267 17.9749 0.989572C20.3503 1.97351 22.3806 3.63975 23.8091 5.77759C25.2376 7.91543 26 10.4288 26 13C26 16.4478 24.6304 19.7544 22.1924 22.1924C19.7544 24.6304 16.4478 26 13 26ZM13 0.634152C10.5543 0.634152 8.16346 1.3594 6.1299 2.71817C4.09635 4.07695 2.51139 6.00823 1.57545 8.2678C0.639504 10.5274 0.394619 13.0137 0.871758 15.4125C1.3489 17.8112 2.52663 20.0146 4.25603 21.744C5.98542 23.4734 8.1888 24.6511 10.5875 25.1282C12.9863 25.6054 15.4726 25.3605 17.7322 24.4246C19.9918 23.4886 21.9231 21.9037 23.2818 19.8701C24.6406 17.8365 25.3659 15.4457 25.3659 13C25.3659 9.72038 24.063 6.57507 21.744 4.25603C19.4249 1.93698 16.2796 0.634152 13 0.634152Z" fill="black"/>
<path d="M15.3371 9.14476V11.3199C15.2864 11.3806 15.2265 11.433 15.1596 11.4752C15.1099 11.5104 15.052 11.5323 14.9915 11.5387C14.9701 11.5398 14.9488 11.5361 14.929 11.5279C14.9093 11.5197 14.8916 11.5071 14.8774 11.4911C14.8457 11.4482 14.831 11.3951 14.8361 11.3421V9.14476H14.2496V11.5387C14.2393 11.6758 14.2762 11.8123 14.3542 11.9255C14.3927 11.9709 14.4417 12.0062 14.497 12.0283C14.5522 12.0504 14.6121 12.0587 14.6713 12.0523C14.7915 12.0508 14.9098 12.0215 15.0169 11.9667C15.1423 11.8964 15.2549 11.8053 15.3498 11.6972V12.0143H15.9364V9.16061L15.3371 9.14476ZM13.5488 9.28427C13.3843 9.13829 13.1693 9.06209 12.9496 9.07183C12.7209 9.0631 12.4965 9.13492 12.3154 9.27476C12.2382 9.33903 12.1769 9.42025 12.1362 9.51209C12.0955 9.60392 12.0765 9.70391 12.0808 9.80427V11.2882C12.0759 11.3955 12.0937 11.5027 12.133 11.6026C12.1724 11.7026 12.2324 11.7932 12.3091 11.8684C12.486 12.0083 12.705 12.0844 12.9305 12.0844C13.1561 12.0844 13.3751 12.0083 13.552 11.8684C13.6306 11.7959 13.6922 11.7067 13.7322 11.6075C13.7723 11.5082 13.7898 11.4013 13.7835 11.2945V9.82964C13.7865 9.72682 13.7667 9.62461 13.7256 9.53033C13.6845 9.43604 13.623 9.35202 13.5457 9.28427H13.5488ZM13.181 11.3452C13.1823 11.3781 13.1767 11.4108 13.1647 11.4413C13.1527 11.4719 13.1345 11.4996 13.1113 11.5228C13.086 11.5469 13.0561 11.5655 13.0234 11.5775C12.9907 11.5895 12.9558 11.5946 12.921 11.5926C12.8881 11.5944 12.8552 11.5892 12.8246 11.5771C12.794 11.5651 12.7663 11.5466 12.7435 11.5228C12.7 11.4741 12.6772 11.4104 12.68 11.3452V9.7789C12.6788 9.75028 12.6845 9.72177 12.6966 9.69582C12.7088 9.66987 12.727 9.64725 12.7498 9.62988C12.7972 9.5891 12.8587 9.56859 12.921 9.57281C12.9892 9.56899 13.0565 9.58919 13.1113 9.62988C13.134 9.64725 13.1523 9.66987 13.1644 9.69582C13.1766 9.72177 13.1823 9.75028 13.181 9.7789V11.3452ZM11.361 8.12695L10.952 9.68061H10.9044L10.4796 8.12695H9.8137L10.6 10.4638V12.0016H11.2627V10.4004L12.0269 8.12695H11.361ZM15.9332 14.9694C15.9728 15.0398 15.9904 15.1204 15.9839 15.2009V15.464H15.5369V15.2009C15.5277 15.1198 15.5468 15.0381 15.5908 14.9694C15.6133 14.9453 15.6406 14.9261 15.6708 14.913C15.7011 14.8998 15.7338 14.893 15.7667 14.893C15.7997 14.893 15.8324 14.8998 15.8627 14.913C15.8929 14.9261 15.9202 14.9453 15.9427 14.9694H15.9332ZM14.1259 14.9694C14.1064 14.9458 14.0816 14.9272 14.0534 14.915C14.0253 14.9029 13.9947 14.8976 13.9642 14.8996C13.926 14.8985 13.888 14.9061 13.8532 14.9218C13.8132 14.9436 13.7769 14.9714 13.7454 15.0043V16.6277C13.7817 16.6659 13.8247 16.697 13.8722 16.7196C13.9101 16.737 13.9511 16.7467 13.9927 16.7482C14.0194 16.7515 14.0465 16.7481 14.0714 16.7381C14.0964 16.7281 14.1184 16.7119 14.1354 16.6911C14.1713 16.6392 14.1881 16.5764 14.183 16.5135V15.1533C14.1898 15.0834 14.1706 15.0134 14.1291 14.9567L14.1259 14.9694ZM14.1259 14.9694C14.1064 14.9458 14.0816 14.9272 14.0534 14.915C14.0253 14.9029 13.9947 14.8976 13.9642 14.8996C13.926 14.8985 13.888 14.9061 13.8532 14.9218C13.8132 14.9436 13.7769 14.9714 13.7454 15.0043V16.6277C13.7817 16.6659 13.8247 16.697 13.8722 16.7196C13.9101 16.737 13.9511 16.7467 13.9927 16.7482C14.0194 16.7515 14.0465 16.7481 14.0714 16.7381C14.0964 16.7281 14.1184 16.7119 14.1354 16.6911C14.1713 16.6392 14.1881 16.5764 14.183 16.5135V15.1533C14.1898 15.0834 14.1706 15.0134 14.1291 14.9567L14.1259 14.9694ZM17.0778 12.9623H8.92272C8.49235 12.9648 8.08021 13.1364 7.77528 13.4402C7.47036 13.7439 7.29712 14.1554 7.29297 14.5857V16.2504C7.29464 16.6818 7.46699 17.095 7.77235 17.3998C8.07772 17.7046 8.49129 17.8761 8.92272 17.877H17.0778C17.5101 17.8753 17.9242 17.7026 18.2295 17.3966C18.5349 17.0907 18.7068 16.6763 18.7076 16.244V14.5857C18.7068 14.1532 18.535 13.7385 18.2297 13.432C17.9244 13.1255 17.5104 12.9521 17.0778 12.9496V12.9623ZM11.1169 14.107H10.5081V17.1223H9.92151V14.0943H9.31907V13.5806H11.12L11.1169 14.107ZM12.8322 17.1223H12.3091V16.8052C12.2266 16.9045 12.1253 16.9864 12.011 17.0462C11.9198 17.1005 11.816 17.13 11.7098 17.1318C11.6574 17.1362 11.6048 17.1274 11.5567 17.1064C11.5085 17.0854 11.4663 17.0527 11.4339 17.0113C11.3689 16.9084 11.3388 16.7872 11.3483 16.6657V14.5033H11.8652V16.4882C11.8617 16.5352 11.874 16.5821 11.9 16.6213C11.9126 16.6364 11.9288 16.6481 11.9471 16.6553C11.9654 16.6625 11.9852 16.665 12.0047 16.6626C12.0569 16.6583 12.1066 16.6385 12.1474 16.6055C12.21 16.5702 12.265 16.5228 12.3091 16.466V14.5033H12.8322V17.1223ZM14.7347 16.5801C14.7334 16.7305 14.6809 16.8759 14.5857 16.9923C14.5416 17.0424 14.4867 17.0819 14.4252 17.1077C14.3637 17.1335 14.2971 17.145 14.2305 17.1413C14.1364 17.1442 14.0429 17.1247 13.9578 17.0843C13.8716 17.0409 13.795 16.9805 13.7327 16.9067V17.1223H13.2254V13.5806H13.7486V14.7126C13.8126 14.6406 13.8888 14.5805 13.9737 14.535C14.0481 14.4955 14.1305 14.4738 14.2147 14.4716C14.2859 14.468 14.3569 14.4813 14.422 14.5105C14.487 14.5397 14.5442 14.584 14.5888 14.6396C14.6862 14.7807 14.7332 14.9505 14.722 15.1216L14.7347 16.5801ZM16.542 15.8826H15.5369V16.3613C15.5273 16.458 15.5437 16.5554 15.5844 16.6435C15.6042 16.6715 15.6311 16.6936 15.6623 16.7076C15.6936 16.7215 15.728 16.7268 15.762 16.7228C15.795 16.7263 15.8284 16.7219 15.8593 16.7097C15.8902 16.6976 15.9178 16.6781 15.9396 16.653C15.9838 16.5615 16.0014 16.4593 15.9903 16.3582V16.2377H16.5325V16.3709C16.541 16.4802 16.5274 16.5902 16.4926 16.6943C16.4577 16.7983 16.4023 16.8943 16.3296 16.9765C16.2523 17.0487 16.1607 17.1038 16.0608 17.1383C15.9608 17.1727 15.8546 17.1856 15.7493 17.1762C15.6475 17.1823 15.5456 17.1665 15.4504 17.1298C15.3552 17.0932 15.269 17.0366 15.1976 16.9638C15.0572 16.7992 14.9856 16.5868 14.9978 16.3709V15.204C14.994 15.1016 15.0118 14.9996 15.05 14.9045C15.0883 14.8095 15.1461 14.7235 15.2198 14.6523C15.2957 14.5813 15.385 14.5259 15.4824 14.4895C15.5798 14.453 15.6834 14.4362 15.7874 14.4399C15.8874 14.4341 15.9875 14.4491 16.0814 14.484C16.1752 14.519 16.2608 14.573 16.3327 14.6428C16.4013 14.7191 16.454 14.8084 16.4877 14.9053C16.5215 15.0021 16.5356 15.1048 16.5293 15.2072L16.542 15.8826ZM13.9515 14.887C13.9133 14.8858 13.8753 14.8934 13.8405 14.9091C13.8006 14.9309 13.7642 14.9587 13.7327 14.9916V16.615C13.769 16.6532 13.812 16.6844 13.8596 16.707C13.8974 16.7243 13.9384 16.734 13.98 16.7355C14.0067 16.7389 14.0338 16.7354 14.0588 16.7254C14.0837 16.7154 14.1057 16.6992 14.1227 16.6784C14.1587 16.6265 14.1755 16.5638 14.1703 16.5009V15.1533C14.1762 15.083 14.1559 15.0129 14.1132 14.9567C14.0937 14.9331 14.0689 14.9145 14.0408 14.9024C14.0126 14.8902 13.9821 14.885 13.9515 14.887ZM14.1132 14.9567C14.0937 14.9331 14.0689 14.9145 14.0408 14.9024C14.0126 14.8902 13.9821 14.885 13.9515 14.887C13.9133 14.8858 13.8753 14.8934 13.8405 14.9091C13.8006 14.9309 13.7642 14.9587 13.7327 14.9916V16.615C13.769 16.6532 13.812 16.6844 13.8596 16.707C13.8974 16.7243 13.9384 16.734 13.98 16.7355C14.0067 16.7389 14.0338 16.7354 14.0588 16.7254C14.0837 16.7154 14.1057 16.6992 14.1227 16.6784C14.1587 16.6265 14.1755 16.5638 14.1703 16.5009V15.1533C14.1808 15.0849 14.1662 15.0151 14.1291 14.9567H14.1132ZM14.1132 14.9567C14.0937 14.9331 14.0689 14.9145 14.0408 14.9024C14.0126 14.8902 13.9821 14.885 13.9515 14.887C13.9133 14.8858 13.8753 14.8934 13.8405 14.9091C13.8006 14.9309 13.7642 14.9587 13.7327 14.9916V16.615C13.769 16.6532 13.812 16.6844 13.8596 16.707C13.8974 16.7243 13.9384 16.734 13.98 16.7355C14.0067 16.7389 14.0338 16.7354 14.0588 16.7254C14.0837 16.7154 14.1057 16.6992 14.1227 16.6784C14.1587 16.6265 14.1755 16.5638 14.1703 16.5009V15.1533C14.1808 15.0849 14.1662 15.0151 14.1291 14.9567H14.1132Z" fill="black"/>
</svg>
